# xmcd
# Track frame offsets:
# 150
# 14504
# 31330
# 44538
# 58592
# 71328
# 88250
# 101325
# 119225
# 135433
# 148277
# 162506
# 179156
# 194215
#
# Disc length: 2806 seconds
# Revision: 0
# Processed by: cddbd v1.5.2PL0 Copyright (c) Steve Scherf et al.
# Submitted via: VisiTrax 2.10.0.248 - For more info visit www.synapsa.com
#
DISCID=dd0af40e
DTITLE=Various Artist - Mr Music Country 05-06
DYEAR=2006
DGENRE=Country
TTITLE0=Sunny Sweeney - Next Big Nothing
TTITLE1=Tobias Rene - California
TTITLE2=Wayne Kemp - Don't Send Me No Angels
TTITLE3=Heidi Hauge - Much Too Young
TTITLE4=TimAaron - Honk If You Honky Tonk
TTITLE5=Billy Payne - Write It Lefty
TTITLE6=Tanya Dennis - 98,6 Degrees
TTITLE7=David Williams - I'm Drowning Tomorrow
TTITLE8=Ricky Ryan - He Lies
TTITLE9=George Highfill - Hit The Dance Floor Dancin'
TTITLE10=Liz Talley and Billy Yates - It's Time To Cross That Bridge
TTITLE11=James Segrest - Mama's Song
TTITLE12=Ashleigh Rogers - Lonely
TTITLE13=Ed Bruce - In The Garden
EXTD=
EXTT0=
EXTT1=
EXTT2=
EXTT3=
EXTT4=
EXTT5=
EXTT6=
EXTT7=
EXTT8=
EXTT9=
EXTT10=
EXTT11=
EXTT12=
EXTT13=
PLAYORDER=
